<mxfile host="app.diagrams.net" modified="2023-10-28T15:39:28.167Z" agent="Mozilla/5.0 (X11; Linux x86_64) AppleWebKit/537.36 (KHTML, like Gecko) Chrome/107.0.0.0 Safari/537.36" etag="FuG4lRJYgEY4_fjwbLp5" version="22.0.8" type="github">
  <diagram id="R2lEEEUBdFMjLlhIrx00" name="Page-1">
    <mxGraphModel dx="672" dy="736" grid="1" gridSize="10" guides="1" tooltips="1" connect="1" arrows="1" fold="1" page="1" pageScale="1" pageWidth="850" pageHeight="1100" math="0" shadow="0" extFonts="Permanent Marker^https://fonts.googleapis.com/css?family=Permanent+Marker">
      <root>
        <mxCell id="0" />
        <mxCell id="1" parent="0" />
        <mxCell id="jdyXsrFnBvAeYx6v0fk8-27" value="&lt;p style=&quot;line-height: 230%; font-size: 17px;&quot;&gt;&lt;b&gt;Characters&lt;/b&gt;&lt;/p&gt;" style="rounded=0;whiteSpace=wrap;html=1;" vertex="1" parent="1">
          <mxGeometry x="151" y="320" width="120" height="60" as="geometry" />
        </mxCell>
        <mxCell id="jdyXsrFnBvAeYx6v0fk8-28" value="&lt;b&gt;&lt;font style=&quot;font-size: 16px;&quot;&gt;Full Name&lt;/font&gt;&lt;/b&gt;" style="ellipse;whiteSpace=wrap;html=1;align=center;fontStyle=4;" vertex="1" parent="1">
          <mxGeometry x="20" y="202.5" width="110" height="50" as="geometry" />
        </mxCell>
        <mxCell id="jdyXsrFnBvAeYx6v0fk8-29" value="" style="endArrow=none;html=1;rounded=0;entryX=0.142;entryY=-0.033;entryDx=0;entryDy=0;entryPerimeter=0;" edge="1" parent="1" source="jdyXsrFnBvAeYx6v0fk8-28" target="jdyXsrFnBvAeYx6v0fk8-27">
          <mxGeometry relative="1" as="geometry">
            <mxPoint x="101" y="330" as="sourcePoint" />
            <mxPoint x="261" y="330" as="targetPoint" />
          </mxGeometry>
        </mxCell>
        <mxCell id="jdyXsrFnBvAeYx6v0fk8-30" style="edgeStyle=orthogonalEdgeStyle;rounded=0;orthogonalLoop=1;jettySize=auto;html=1;exitX=0.5;exitY=1;exitDx=0;exitDy=0;" edge="1" parent="1" source="jdyXsrFnBvAeYx6v0fk8-27" target="jdyXsrFnBvAeYx6v0fk8-27">
          <mxGeometry relative="1" as="geometry" />
        </mxCell>
        <mxCell id="jdyXsrFnBvAeYx6v0fk8-31" value="&lt;b&gt;&lt;font style=&quot;font-size: 14px;&quot;&gt;Date of Birth&lt;/font&gt;&lt;/b&gt;" style="ellipse;whiteSpace=wrap;html=1;align=center;" vertex="1" parent="1">
          <mxGeometry x="151" y="185" width="110" height="50" as="geometry" />
        </mxCell>
        <mxCell id="jdyXsrFnBvAeYx6v0fk8-32" value="&lt;b&gt;&lt;font style=&quot;font-size: 14px;&quot;&gt;Gender&lt;/font&gt;&lt;/b&gt;" style="ellipse;whiteSpace=wrap;html=1;align=center;" vertex="1" parent="1">
          <mxGeometry x="281" y="205" width="100" height="45" as="geometry" />
        </mxCell>
        <mxCell id="jdyXsrFnBvAeYx6v0fk8-33" value="" style="endArrow=none;html=1;rounded=0;" edge="1" parent="1" source="jdyXsrFnBvAeYx6v0fk8-31">
          <mxGeometry relative="1" as="geometry">
            <mxPoint x="111" y="250" as="sourcePoint" />
            <mxPoint x="206" y="320" as="targetPoint" />
          </mxGeometry>
        </mxCell>
        <mxCell id="jdyXsrFnBvAeYx6v0fk8-34" value="" style="endArrow=none;html=1;rounded=0;" edge="1" parent="1" source="jdyXsrFnBvAeYx6v0fk8-32" target="jdyXsrFnBvAeYx6v0fk8-27">
          <mxGeometry relative="1" as="geometry">
            <mxPoint x="111" y="250" as="sourcePoint" />
            <mxPoint x="271" y="250" as="targetPoint" />
          </mxGeometry>
        </mxCell>
        <mxCell id="jdyXsrFnBvAeYx6v0fk8-35" value="&lt;b&gt;&lt;font style=&quot;font-size: 14px;&quot;&gt;Sex&lt;/font&gt;&lt;/b&gt;" style="ellipse;whiteSpace=wrap;html=1;align=center;" vertex="1" parent="1">
          <mxGeometry x="10" y="390" width="105" height="40" as="geometry" />
        </mxCell>
        <mxCell id="jdyXsrFnBvAeYx6v0fk8-36" value="&lt;b&gt;&lt;font style=&quot;font-size: 14px;&quot;&gt;Blood Type&lt;/font&gt;&lt;/b&gt;" style="ellipse;whiteSpace=wrap;html=1;align=center;" vertex="1" parent="1">
          <mxGeometry x="30" y="480" width="110" height="50" as="geometry" />
        </mxCell>
        <mxCell id="jdyXsrFnBvAeYx6v0fk8-37" value="&lt;b&gt;&lt;font style=&quot;font-size: 14px;&quot;&gt;Phone Number&lt;/font&gt;&lt;/b&gt;" style="ellipse;whiteSpace=wrap;html=1;align=center;" vertex="1" parent="1">
          <mxGeometry x="161" y="500" width="120" height="50" as="geometry" />
        </mxCell>
        <mxCell id="jdyXsrFnBvAeYx6v0fk8-38" value="&lt;b&gt;&lt;font style=&quot;font-size: 16px;&quot;&gt;Quirks&lt;/font&gt;&lt;/b&gt;" style="ellipse;shape=doubleEllipse;margin=3;whiteSpace=wrap;html=1;align=center;" vertex="1" parent="1">
          <mxGeometry x="300" y="460" width="100" height="40" as="geometry" />
        </mxCell>
        <mxCell id="jdyXsrFnBvAeYx6v0fk8-39" value="" style="endArrow=none;html=1;rounded=0;" edge="1" parent="1" source="jdyXsrFnBvAeYx6v0fk8-35" target="jdyXsrFnBvAeYx6v0fk8-27">
          <mxGeometry relative="1" as="geometry">
            <mxPoint x="181" y="380" as="sourcePoint" />
            <mxPoint x="341" y="380" as="targetPoint" />
          </mxGeometry>
        </mxCell>
        <mxCell id="jdyXsrFnBvAeYx6v0fk8-40" value="" style="endArrow=none;html=1;rounded=0;entryX=0.25;entryY=1;entryDx=0;entryDy=0;" edge="1" parent="1" source="jdyXsrFnBvAeYx6v0fk8-36" target="jdyXsrFnBvAeYx6v0fk8-27">
          <mxGeometry relative="1" as="geometry">
            <mxPoint x="181" y="380" as="sourcePoint" />
            <mxPoint x="341" y="380" as="targetPoint" />
          </mxGeometry>
        </mxCell>
        <mxCell id="jdyXsrFnBvAeYx6v0fk8-41" value="" style="endArrow=none;html=1;rounded=0;exitX=0.5;exitY=0;exitDx=0;exitDy=0;entryX=0.5;entryY=1;entryDx=0;entryDy=0;" edge="1" parent="1" source="jdyXsrFnBvAeYx6v0fk8-37" target="jdyXsrFnBvAeYx6v0fk8-27">
          <mxGeometry relative="1" as="geometry">
            <mxPoint x="181" y="380" as="sourcePoint" />
            <mxPoint x="341" y="380" as="targetPoint" />
          </mxGeometry>
        </mxCell>
        <mxCell id="jdyXsrFnBvAeYx6v0fk8-42" value="" style="endArrow=none;html=1;rounded=0;exitX=0.5;exitY=0;exitDx=0;exitDy=0;entryX=0.75;entryY=1;entryDx=0;entryDy=0;" edge="1" parent="1" source="jdyXsrFnBvAeYx6v0fk8-38" target="jdyXsrFnBvAeYx6v0fk8-27">
          <mxGeometry relative="1" as="geometry">
            <mxPoint x="181" y="380" as="sourcePoint" />
            <mxPoint x="341" y="380" as="targetPoint" />
          </mxGeometry>
        </mxCell>
      </root>
    </mxGraphModel>
  </diagram>
</mxfile>
